<svg version="1.2" baseProfile="tiny-ps" xmlns="http://www.w3.org/2000/svg" viewBox="0 0 64 64" width="64" height="64">
	<title>behance-svg</title>
	<style>
		tspan { white-space:pre }
		.shp0 { fill: #ffffff } 
	</style>
	<path id="Layer" fill-rule="evenodd" class="shp0" d="M28 30.21C29.6 31.36 30.79 32.99 31.4 34.86C32.02 36.74 32.02 38.75 31.42 40.63C30.82 42.5 29.63 44.14 28.04 45.3C26.45 46.46 24.53 47.09 22.56 47.09L8.75 47.09C8.62 47.09 8.49 47.06 8.37 47.01C8.25 46.96 8.14 46.89 8.04 46.8C7.95 46.7 7.88 46.59 7.83 46.47C7.78 46.35 7.75 46.22 7.75 46.09L7.75 18.76C7.74 18.62 7.76 18.49 7.81 18.36C7.86 18.23 7.93 18.12 8.02 18.02C8.12 17.92 8.23 17.84 8.36 17.79C8.48 17.74 8.61 17.71 8.75 17.71L21.09 17.71C22.55 17.7 23.99 18.08 25.25 18.82C26.51 19.56 27.55 20.63 28.26 21.91C28.97 23.19 29.32 24.63 29.27 26.09C29.22 27.56 28.79 28.98 28 30.21ZM13.1 28.55L21.2 28.55C21.91 28.55 22.59 28.27 23.09 27.77C23.59 27.27 23.87 26.59 23.87 25.88C23.87 25.17 23.59 24.49 23.09 23.99C22.59 23.49 21.91 23.21 21.2 23.21L13.1 23.21L13.1 28.55ZM22.68 41.74C23.71 41.74 24.69 41.33 25.42 40.61C26.14 39.88 26.55 38.9 26.55 37.87C26.55 36.84 26.14 35.86 25.42 35.13C24.69 34.41 23.71 34 22.68 34L13.12 34L13.12 41.74L22.68 41.74Z" />
	<path id="Layer" fill-rule="evenodd" class="shp0" d="M55.7 36.15C55.7 36.29 55.67 36.44 55.62 36.57C55.57 36.7 55.49 36.82 55.38 36.93C55.28 37.03 55.16 37.11 55.03 37.17C54.9 37.22 54.75 37.25 54.61 37.25L39 37.25C39.12 37.9 39.35 38.53 39.68 39.1C40.02 39.67 40.44 40.19 40.95 40.62C41.45 41.04 42.03 41.38 42.64 41.62C43.26 41.86 43.92 41.98 44.58 42C44.92 42.01 45.27 41.98 45.61 41.92C45.95 41.86 46.28 41.77 46.6 41.64C46.92 41.52 47.23 41.36 47.52 41.17C47.8 40.99 48.07 40.77 48.32 40.53C48.34 40.51 48.36 40.49 48.39 40.47C48.41 40.46 48.44 40.44 48.47 40.43C48.49 40.42 48.52 40.41 48.55 40.41C48.58 40.4 48.61 40.4 48.64 40.4L54.11 40.4C54.19 40.4 54.27 40.42 54.33 40.46C54.4 40.5 54.46 40.56 54.5 40.63C54.54 40.69 54.57 40.77 54.57 40.85C54.58 40.93 54.56 41.01 54.53 41.08C54.48 41.19 54.42 41.29 54.37 41.4C54.31 41.51 54.26 41.61 54.2 41.72C54.14 41.82 54.08 41.92 54.02 42.03C53.96 42.13 53.89 42.23 53.83 42.33C53.34 43.11 52.75 43.82 52.08 44.45C51.41 45.09 50.67 45.63 49.86 46.08C49.06 46.53 48.2 46.87 47.31 47.1C46.42 47.34 45.5 47.46 44.58 47.46C43.09 47.43 41.63 47.11 40.26 46.51C38.9 45.92 37.67 45.06 36.64 43.99C35.6 42.92 34.79 41.65 34.25 40.27C33.7 38.88 33.43 37.41 33.46 35.92C33.43 34.43 33.7 32.96 34.25 31.57C34.79 30.19 35.6 28.92 36.64 27.85C37.67 26.78 38.9 25.92 40.26 25.33C41.63 24.73 43.09 24.41 44.58 24.38C46.07 24.41 47.53 24.73 48.9 25.33C50.26 25.92 51.49 26.78 52.52 27.85C53.56 28.92 54.37 30.19 54.91 31.57C55.46 32.96 55.73 34.43 55.7 35.92L55.7 36.15ZM44.58 29.83C44.1 29.84 43.62 29.9 43.16 30.03C42.7 30.16 42.25 30.35 41.84 30.59C41.42 30.83 41.04 31.12 40.7 31.46C40.36 31.8 40.06 32.18 39.82 32.59L49.35 32.59C49.11 32.18 48.81 31.8 48.47 31.46C48.13 31.12 47.74 30.83 47.33 30.59C46.91 30.35 46.46 30.16 46 30.03C45.54 29.9 45.06 29.84 44.58 29.83Z" />
	<path id="Layer" class="shp0" d="M49.2 23L39.34 23C39.23 23 39.12 22.98 39.02 22.93C38.92 22.89 38.83 22.83 38.75 22.75C38.68 22.67 38.61 22.58 38.57 22.48C38.53 22.38 38.51 22.27 38.51 22.16L38.51 19.7C38.51 19.59 38.53 19.48 38.57 19.38C38.61 19.28 38.68 19.19 38.75 19.11C38.83 19.04 38.92 18.97 39.02 18.93C39.12 18.89 39.23 18.87 39.34 18.87L49.2 18.87C49.31 18.87 49.42 18.89 49.52 18.93C49.62 18.97 49.71 19.04 49.79 19.11C49.87 19.19 49.93 19.28 49.97 19.38C50.02 19.48 50.04 19.59 50.04 19.7L50.04 22.19C50.04 22.3 50.02 22.41 49.97 22.51C49.93 22.61 49.87 22.7 49.79 22.78C49.71 22.86 49.62 22.92 49.52 22.96C49.42 23.01 49.31 23.03 49.2 23.03L49.2 23Z" />
</svg>