<svg version="1.2" baseProfile="tiny-ps" xmlns="http://www.w3.org/2000/svg" viewBox="0 0 439 439" width="439" height="439">
	<title>dribbble-svg</title>
	<style>
		tspan { white-space:pre }
		.shp0 { fill: #ffffff } 
	</style>
	<g id="Layer">
		<path id="Layer" fill-rule="evenodd" class="shp0" d="M438.53 219.27C438.53 259.05 428.73 295.73 409.13 329.33C389.52 362.92 362.93 389.53 329.33 409.13C295.74 428.73 259.05 438.53 219.27 438.53C179.49 438.53 142.8 428.73 109.21 409.13C75.61 389.52 49.01 362.92 29.41 329.33C9.8 295.73 0 259.05 0 219.27C0 179.49 9.8 142.8 29.41 109.2C49.02 75.61 75.61 49.01 109.21 29.41C142.8 9.8 179.49 0 219.27 0C259.06 0 295.74 9.8 329.33 29.41C362.93 49.01 389.52 75.61 409.13 109.2C428.73 142.79 438.53 179.49 438.53 219.27ZM175.02 37.4C199.95 69.75 223.36 106.11 245.25 146.46C258.38 141.52 270.75 135.75 282.36 129.19C293.98 122.62 303.16 116.77 309.92 111.63C316.68 106.49 322.91 101.06 328.62 95.35C334.33 89.64 337.89 85.79 339.32 83.79L342.89 78.8C307.68 47.58 266.47 31.98 219.27 31.98C204.81 31.98 190.06 33.78 175.02 37.4ZM35.98 180.72C93.46 180.72 151.13 173.11 208.99 157.88C186.15 117.34 162.93 81.37 139.33 49.96C113.06 62.33 90.8 80.03 72.52 103.06C54.25 126.09 42.07 151.98 35.98 180.72ZM79.94 344.32C89.46 327.38 101.21 311.54 115.2 296.79C129.19 282.03 142.75 270.19 155.88 261.24C169.02 252.29 181.44 244.59 193.14 238.11C204.84 231.64 214.31 227.07 221.55 224.4L232.11 220.69C232.88 220.5 234.11 220.17 235.83 219.69C237.55 219.22 238.77 218.79 239.55 218.41C235.55 209.08 230.5 198.52 224.41 186.72C165.22 204.42 101.17 213.27 32.26 213.27C32.07 214.6 31.98 216.6 31.98 219.27C31.98 242.87 36.16 265.38 44.54 286.79C52.91 308.2 64.71 327.38 79.94 344.32ZM292.36 391.71C284.37 345.84 271.04 298.44 252.39 249.53L251.82 249.53L251.25 249.81C248.2 250.96 244.11 252.53 238.97 254.53C233.83 256.52 224.22 261.19 210.13 268.51C196.05 275.85 183.01 283.65 171.02 291.93C159.03 300.21 146.56 311.11 133.62 324.62C120.67 338.13 110.87 352.22 104.21 366.88L99.93 363.74C134.95 392.28 174.73 406.56 219.27 406.56C244.4 406.56 268.76 401.61 292.36 391.71ZM404.28 248.95C364.31 237.54 325.39 234.77 287.51 240.68C304.07 286.17 316.25 330.81 324.06 374.58C345.18 360.31 362.79 342.27 376.88 320.48C390.95 298.69 400.09 274.84 404.28 248.95ZM406.56 217.27C406 173.11 391.81 134.09 364.03 100.21L363.74 100.5C362.03 102.78 360.22 105.11 358.31 107.49C356.4 109.87 352.27 114.11 345.89 120.2C339.52 126.28 332.76 132.04 325.62 137.47C318.48 142.9 308.97 149.08 297.08 156.03C285.17 162.98 272.66 169.11 259.52 174.45C264.29 184.53 268.47 193.57 272.1 201.57C272.46 202.71 273.09 204.38 273.94 206.56C274.8 208.75 275.51 210.32 276.09 211.28C282.94 210.33 290.03 209.65 297.35 209.28C304.68 208.9 311.68 208.71 318.33 208.71C325 208.71 331.56 208.85 338.04 209.14C344.5 209.42 350.6 209.8 356.31 210.28C362.02 210.75 367.4 211.28 372.44 211.85C377.48 212.42 382.06 213.04 386.14 213.7C390.24 214.37 393.71 214.94 396.57 215.42C399.42 215.89 401.8 216.32 403.71 216.7L406.56 217.27Z" />
	</g>
	<g id="Layer">
	</g>
	<g id="Layer">
	</g>
	<g id="Layer">
	</g>
	<g id="Layer">
	</g>
	<g id="Layer">
	</g>
	<g id="Layer">
	</g>
	<g id="Layer">
	</g>
	<g id="Layer">
	</g>
	<g id="Layer">
	</g>
	<g id="Layer">
	</g>
	<g id="Layer">
	</g>
	<g id="Layer">
	</g>
	<g id="Layer">
	</g>
	<g id="Layer">
	</g>
	<g id="Layer">
	</g>
</svg>