<svg version="1.2" baseProfile="tiny-ps" xmlns="http://www.w3.org/2000/svg" viewBox="0 0 512 512" width="512" height="512">
	<title>facebook-svg</title>
	<style>
		tspan { white-space:pre }
		.shp0 { fill: #ffffff } 
	</style>
	<g id="Layer">
		<path id="Layer" class="shp0" d="M304 383C304 423.2 303.9 463.3 304.1 503.5C304.1 507.9 302.9 509.1 298.5 509C264.3 508.8 230.2 508.8 196 509C191.3 509 189.8 507.9 189.8 503C190 423.3 189.9 343.7 189.9 264C189.9 256 190.8 257 182.6 256.9C168.1 256.9 153.6 256.8 139.1 257C135.6 257 134.6 255.9 134.6 252.4C134.7 227.1 134.7 201.7 134.6 176.4C134.6 172.9 135.6 171.8 139.1 171.9C154.3 172.1 169.4 171.8 184.6 172.1C188.7 172.2 190 171.1 190 166.8C189.8 145.5 190 124.1 189.9 102.8C189.8 85.1 192.5 68 201.4 52.4C211 35.4 225.4 23.7 243.2 16.1C258.2 9.7 274 6.7 290.2 5.8C322.3 4 354.5 5.5 386.6 4.9C390.2 4.8 391.1 6.1 391.1 9.5C391 35.8 391 62.2 391.1 88.5C391.1 92.5 389.6 93.1 386.1 93.1C367.6 93 349.1 93 330.6 93C315.2 93 304.1 104.1 304.1 119.3C304.1 135 304.3 150.6 304 166.3C303.9 170.8 305.4 171.9 309.7 171.9C335 171.7 360.4 171.9 385.7 171.7C389.9 171.7 391.3 172.9 390.8 177.1C389.3 190 388 202.9 386.6 215.8C385.3 228.2 383.1 240.5 381.1 252.8C380.5 256.3 379.4 257.1 376.2 257.1C354.5 257 332.9 257 311.2 257.1C302.7 257.1 303.9 256 303.9 264.6C304 304 304 343.5 304 383Z" />
	</g>
</svg>