<svg version="1.2" baseProfile="tiny-ps" xmlns="http://www.w3.org/2000/svg" viewBox="0 0 512 512" width="512" height="512">
	<title>google-svg</title>
	<style>
		tspan { white-space:pre }
		.shp0 { fill: #ffffff } 
	</style>
	<g id="Layer">
		<path id="Layer" fill-rule="evenodd" class="shp0" d="M18.9 408.3C19.5 382.9 29.2 359.6 46.3 339.1C64.7 317 88.3 303.1 115.8 295.7C126.9 292.7 138.2 290.5 149.8 290.9C152.9 291 154.6 290.7 153 286.9C147.7 274.6 146.8 261.8 149 248.7C149.5 245.8 148.4 245.1 145.6 244.9C106.5 241.8 78.9 221.6 61 187.5C50.1 166.9 45.4 144.7 46.4 121.5C47.4 97.5 55.4 75.6 69.5 56.1C80.8 40.4 94.9 27.7 111.9 18.4C127.5 9.9 144 4.2 161.7 4C204.7 3.7 247.8 4 291 4C296.6 4 299.9 6.7 301.9 11.8C303.9 16.9 302.4 21.3 298.9 24.6C289.3 33.3 279.4 41.7 269.4 50C266.5 52.5 262.6 51.2 259.2 51.3C255.7 51.3 254 51.6 256.5 55.6C267.5 73 272.4 92.3 274.1 112.6C275.7 130.8 274.2 148.5 267.8 165.6C261.6 182.3 251.9 196.9 239.3 209.6C231.8 217.2 222.6 223.5 217.6 233.5C213.9 240.9 213.7 247.9 218.4 255.2C226.2 267.4 236.3 277.4 247.2 286.7C272.4 308 288.2 334.3 291 367.8C292.7 388.4 293 408.7 285.8 428.4C276.2 454.8 259.1 475.2 234.9 489.6C213.6 502.3 190.5 508.3 165.7 509.3C135.1 510.5 105.6 506 77.9 493C53.4 481.5 33.6 464.9 23.7 438.6C20.4 429.4 18.9 419.7 18.9 408.3ZM160.7 462.2C176.1 462 191.3 460.3 205.5 454C217.2 448.8 226.7 441 232.8 429.5C238.4 418.9 239.9 407.4 239.9 395.7C239.9 383.6 236.6 372.5 228 363.3C219.9 354.6 210.6 347.5 201.7 339.8C196.3 335.1 190.7 331.1 183.5 330.2C175.1 329.1 166.8 328 158.2 328.7C135.5 330.7 116.3 339.2 100.5 355.8C77.4 380.1 80.6 413.9 99.9 436.5C115.8 455.1 136.7 462.5 160.7 462.2ZM210.2 146.1C210.2 123.4 205.5 103.7 195.6 85C188.7 72 179.7 60.9 166.7 53.4C152 44.9 134.5 48.1 124.2 61.5C118.4 69 114.9 77.6 113 86.8C109.1 106.1 109.9 125.3 115.4 144.1C121.4 164.6 130.6 183.5 147.8 197.3C155.4 203.4 164 207.3 173.9 206.5C188.6 205.3 197 195.7 202.6 183.3C208.3 171 210.8 158 210.2 146.1Z" />
	</g>
</svg>