<svg version="1.2" baseProfile="tiny-ps" xmlns="http://www.w3.org/2000/svg" viewBox="0 0 479 479" width="479" height="479">
	<title>linkedin-svg</title>
	<style>
		tspan { white-space:pre }
		.shp0 { fill: #ffffff } 
	</style>
	<g id="Layer">
		<path id="LinkedIn_3_" fill-rule="evenodd" class="shp0" d="M478.17 290.79L478.17 467.54L375.64 467.54L375.64 302.55C375.64 261.07 360.85 232.88 323.76 232.88C295.39 232.88 278.65 251.96 271.18 270.33C268.49 276.95 267.67 286.21 267.67 295.36L267.67 467.51L165.25 467.51C165.25 467.51 166.62 188.19 165.25 159.26L267.69 159.26L267.69 202.95C267.55 203.31 267.25 203.61 267.12 204.01L267.69 204.01L267.69 202.95C281.38 181.95 305.63 152.02 360.08 152.02C427.66 152.03 478.17 196.08 478.17 290.79ZM115.32 63.95C115.32 93.45 93.12 117.22 57.3 117.22L56.68 117.22C22.27 117.22 0 93.45 0 63.95C0 33.62 22.95 10.63 58 10.63C93.12 10.63 114.62 33.62 115.32 63.95ZM6.12 159.24L108.58 159.24L108.58 467.54L6.12 467.54L6.12 159.24Z" />
	</g>
	<g id="Layer">
	</g>
	<g id="Layer">
	</g>
	<g id="Layer">
	</g>
	<g id="Layer">
	</g>
	<g id="Layer">
	</g>
	<g id="Layer">
	</g>
	<g id="Layer">
	</g>
	<g id="Layer">
	</g>
	<g id="Layer">
	</g>
	<g id="Layer">
	</g>
	<g id="Layer">
	</g>
	<g id="Layer">
	</g>
	<g id="Layer">
	</g>
	<g id="Layer">
	</g>
	<g id="Layer">
	</g>
</svg>