<svg version="1.2" baseProfile="tiny-ps" xmlns="http://www.w3.org/2000/svg" viewBox="0 0 439 439" width="439" height="439">
	<title>skype-logo_icon-icons</title>
	<style>
		tspan { white-space:pre }
		.shp0 { fill: #ffffff } 
	</style>
	<g id="Layer">
		<path id="Layer" fill-rule="evenodd" class="shp0" d="M438.53 328.9C438.53 359.16 427.83 385 406.41 406.42C385.01 427.83 359.17 438.54 328.91 438.54C304.16 438.54 281.9 430.92 262.11 415.69C247.44 418.74 233.16 420.26 219.27 420.26C192.05 420.26 166.02 414.98 141.18 404.42C116.35 393.85 94.93 379.58 76.95 361.59C58.96 343.6 44.68 322.19 34.12 297.35C23.56 272.51 18.28 246.48 18.28 219.27C18.28 205.37 19.8 191.09 22.84 176.44C7.62 156.65 0 134.38 0 109.63C0 79.37 10.71 53.53 32.12 32.12C53.54 10.7 79.38 0 109.64 0C134.38 0 156.65 7.61 176.45 22.84C191.1 19.79 205.38 18.27 219.27 18.27C246.5 18.27 272.52 23.55 297.36 34.11C322.2 44.68 343.61 58.95 361.6 76.94C379.58 94.93 393.86 116.34 404.42 141.18C414.99 166.02 420.26 192.05 420.26 219.27C420.26 233.16 418.74 247.44 415.7 262.09C430.92 281.89 438.53 304.16 438.53 328.9ZM334.9 266.95C334.9 257.43 333.05 248.72 329.33 240.82C325.62 232.92 321 226.41 315.48 221.27C309.96 216.13 303.02 211.47 294.64 207.28C286.27 203.09 278.42 199.86 271.09 197.57C263.75 195.29 255.43 193.1 246.11 191L216.41 184.15C210.7 182.82 206.51 181.82 203.85 181.16C201.19 180.49 197.85 179.4 193.86 177.87C189.86 176.35 187 174.83 185.29 173.3C183.58 171.78 182.01 169.78 180.58 167.31C179.16 164.83 178.44 161.98 178.44 158.74C178.44 144.08 192.15 136.76 219.55 136.76C227.74 136.76 235.06 137.9 241.54 140.19C248 142.47 253.14 145.18 256.95 148.32C260.75 151.46 264.37 154.65 267.8 157.89C271.23 161.12 275.04 163.88 279.22 166.16C283.41 168.45 287.98 169.59 292.93 169.59C301.87 169.59 309.06 166.54 314.48 160.46C319.91 154.37 322.61 147.04 322.61 138.47C322.61 128.01 317.29 118.54 306.63 110.07C295.97 101.6 282.46 95.17 266.09 90.79C249.72 86.42 232.41 84.23 214.13 84.23C201.19 84.23 188.62 85.7 176.44 88.65C164.26 91.6 152.89 96.08 142.33 102.07C131.77 108.07 123.29 116.35 116.92 126.91C110.54 137.48 107.35 149.7 107.35 163.6C107.35 175.21 109.16 185.35 112.78 194.01C116.39 202.67 121.72 209.85 128.76 215.56C135.8 221.28 143.42 225.89 151.6 229.41C159.79 232.93 169.59 236.02 181.01 238.68L222.7 248.97C239.83 253.15 250.5 256.58 254.68 259.25C260.77 263.05 263.81 268.76 263.81 276.38C263.81 283.8 260 289.94 252.39 294.8C244.77 299.65 234.78 302.07 222.41 302.07C212.7 302.07 203.99 300.55 196.28 297.5C188.57 294.46 182.39 290.79 177.73 286.51C173.06 282.22 168.74 277.95 164.74 273.66C160.74 269.38 156.36 265.71 151.6 262.66C146.85 259.62 141.71 258.1 136.19 258.1C126.67 258.1 119.49 260.95 114.63 266.66C109.78 272.38 107.35 279.51 107.35 288.07C107.35 305.58 118.96 320.57 142.18 333.04C165.41 345.51 193.1 351.74 225.26 351.74C239.16 351.74 252.48 349.98 265.23 346.46C277.99 342.93 289.64 337.85 300.21 331.19C310.77 324.52 319.2 315.63 325.47 304.49C331.76 293.36 334.9 280.84 334.9 266.95Z" />
	</g>
	<g id="Layer">
	</g>
	<g id="Layer">
	</g>
	<g id="Layer">
	</g>
	<g id="Layer">
	</g>
	<g id="Layer">
	</g>
	<g id="Layer">
	</g>
	<g id="Layer">
	</g>
	<g id="Layer">
	</g>
	<g id="Layer">
	</g>
	<g id="Layer">
	</g>
	<g id="Layer">
	</g>
	<g id="Layer">
	</g>
	<g id="Layer">
	</g>
	<g id="Layer">
	</g>
	<g id="Layer">
	</g>
</svg>