<svg version="1.2" baseProfile="tiny-ps" xmlns="http://www.w3.org/2000/svg" viewBox="0 0 512 512" width="512" height="512">
	<title>twitter-svg</title>
	<style>
		tspan { white-space:pre }
		.shp0 { fill: #ffffff } 
	</style>
	<g id="Layer">
		<path id="Layer" class="shp0" d="M3.5 421.4C59.5 426.5 109.6 412.5 155 378.5C148 376.9 141.6 376.9 135.5 375.4C99.8 366.9 75.1 345.4 60.6 311.9C59.9 310.2 58.1 308.1 59.7 306.4C60.9 305.1 63.2 306.2 64.9 306.4C77.5 307.7 90.1 307.3 102.5 304.4C102.7 302.2 101.1 302.4 99.9 302C69.2 293.8 46.9 275.5 32.5 247.2C25.9 234.2 22.3 220.6 21.9 206C21.7 200.3 22 200.2 27.3 202.7C39.9 208.7 53.1 212.1 68.2 212.8C61.3 207.2 55.1 202.3 49.8 196.4C33.7 178.5 24.7 157.6 22.8 133.5C21.3 113.9 25.4 95.6 33.9 78C35.8 74.1 37.5 74.4 39.9 77.3C56.6 97.7 76.1 115 97.6 130C113.6 141.2 130.6 150.5 148.5 158.4C172.1 168.7 196.6 175.6 222 179.7C230 181 238.2 181.3 246.3 182.1C250.4 182.5 251.5 181.3 250.7 177.1C246.6 155.5 249.4 134.5 258.8 114.8C274.9 81.2 301.9 60.8 338.6 55.4C371.2 50.6 400.5 59.9 424.8 82.8C428.5 86.3 431.8 87.2 436.8 85.9C456.4 80.9 475.1 73.8 492.7 63.8C493.2 63.5 493.8 63.4 495.6 62.7C487.4 86.8 472.9 104.6 452.6 118.2C457.3 119.1 471.2 116.6 480.8 113.6C490 110.7 499.2 108.1 508 104.2C509.2 105.5 508.1 106.2 507.6 106.9C495.9 123.4 482.5 138.3 466.5 150.7C464.3 152.4 462.2 154.3 459.9 155.9C458.2 157.1 458.1 158.6 458.2 160.3C458.9 178.5 457.6 196.6 455 214.5C452.3 232.8 447.7 250.6 441.6 268.1C436.6 282.4 430.7 296.3 423.7 309.8C406.4 343 383.9 372.2 355.8 397.1C325.9 423.5 291.9 442.5 253.9 454.3C230.2 461.7 205.9 466 181 467.3C161.8 468.3 142.7 468 123.7 465.6C96.5 462.3 70.3 454.9 45.1 444.1C32.2 438.6 20 432 7.8 425.1C6.1 424.4 4.4 423.6 3.5 421.4Z" />
	</g>
</svg>